<?xml version="1.0" encoding="UTF-8"?><svg id="b" xmlns="http://www.w3.org/2000/svg" xmlns:xlink="http://www.w3.org/1999/xlink" viewBox="0 0 87.56787 169.15625"><defs><style>.w{fill:url(#k);}.x{fill:url(#t);}.y{fill:#fff;}.z{fill:url(#d);}.aa{fill:url(#l);}.ab{fill:url(#h);}.ac{fill:url(#o);}.ad{fill:url(#j);}.ae{fill:url(#g);}.af{fill:url(#q);}.ag{fill:url(#m);}.ah{fill:url(#e);}.ai{fill:url(#i);}.aj{fill:url(#f);}.ak{fill:url(#v);}.al{fill:url(#p);}.am{fill:#00c2eb;}.an{fill:url(#r);}.ao{fill:#b3b3b3;}.ap{fill:url(#n);}.aq{fill:url(#u);}.ar{fill:url(#s);}</style><linearGradient id="d" x1="6354.58359" y1="125.77541" x2="6354.58359" y2="116.26041" gradientTransform="translate(6367.77589) rotate(-180) scale(1 -1)" gradientUnits="userSpaceOnUse"><stop offset="0" stop-color="#000f8c"/><stop offset="1" stop-color="#00025e"/></linearGradient><linearGradient id="e" x1="6354.06869" y1="130.85277" x2="6354.06869" y2="123.34182" xlink:href="#d"/><linearGradient id="f" x1="-465.4517" y1="-555.3057" x2="-465.43213" y2="-555.3057" gradientTransform="translate(344.08622 475.04613) rotate(-22.63294) scale(.76839 .88783) skewX(-30.14478)" gradientUnits="userSpaceOnUse"><stop offset="0" stop-color="#000eba"/><stop offset="1" stop-color="#00025e"/></linearGradient><linearGradient id="g" x1="-226.98304" y1="77.1127" x2="-226.96542" y2="77.1127" gradientTransform="translate(203.48435 -28.3583) rotate(-15.03228) scale(.66915 .77317) skewX(-30.06452)" xlink:href="#f"/><linearGradient id="h" x1="6168.35362" y1="161.15576" x2="6168.35362" y2="77.73944" gradientTransform="translate(6184.55374) rotate(-180) scale(1 -1)" gradientUnits="userSpaceOnUse"><stop offset="0" stop-color="#00c2eb"/><stop offset=".03941" stop-color="#00a2d3"/><stop offset=".10093" stop-color="#0078b4"/><stop offset=".16579" stop-color="#005399"/><stop offset=".23333" stop-color="#003584"/><stop offset=".30445" stop-color="#001e73"/><stop offset=".3808" stop-color="#000e67"/><stop offset=".46603" stop-color="#000560"/><stop offset=".57821" stop-color="#00025e"/><stop offset=".60491" stop-color="#00077c"/><stop offset=".63599" stop-color="#000c97"/><stop offset=".67139" stop-color="#0010ae"/><stop offset=".71227" stop-color="#0013bf"/><stop offset=".76203" stop-color="#0015cb"/><stop offset=".83003" stop-color="#0016d3"/><stop offset="1" stop-color="#0017d5"/></linearGradient><linearGradient id="i" x1="26.44668" y1="132.50472" x2="26.44668" y2="65.08688" gradientUnits="userSpaceOnUse"><stop offset="0" stop-color="#00025e"/><stop offset=".06329" stop-color="#00077c"/><stop offset=".13698" stop-color="#000c97"/><stop offset=".22091" stop-color="#0010ae"/><stop offset=".31783" stop-color="#0013bf"/><stop offset=".4358" stop-color="#0015cb"/><stop offset=".59702" stop-color="#0016d3"/><stop offset="1" stop-color="#0017d5"/></linearGradient><linearGradient id="j" x1="-2381.21677" y1="623.82529" x2="-2381.21677" y2="612.28529" gradientTransform="translate(1423.98018 -373.38764) rotate(2.10033) scale(.56034 .82072)" gradientUnits="userSpaceOnUse"><stop offset="0" stop-color="#00025e"/><stop offset=".02112" stop-color="#000364"/><stop offset=".14492" stop-color="#000987"/><stop offset=".27694" stop-color="#000ea3"/><stop offset=".4179" stop-color="#0012b9"/><stop offset=".57191" stop-color="#0014c8"/><stop offset=".74874" stop-color="#0016d2"/><stop offset="1" stop-color="#0017d5"/></linearGradient><linearGradient id="k" x1="73.67783" y1="127.09729" x2="73.67783" y2="117.5823" gradientTransform="matrix(1,0,0,1,0,0)" xlink:href="#d"/><linearGradient id="l" x1="73.16293" y1="130.41558" x2="73.16293" y2="122.90463" gradientTransform="matrix(1,0,0,1,0,0)" xlink:href="#d"/><linearGradient id="m" x1="70.45006" y1="161.15576" x2="70.45006" y2="77.73944" gradientTransform="matrix(1,0,0,1,0,0)" xlink:href="#h"/><linearGradient id="n" x1="54.63427" y1="130.41558" x2="54.63427" y2="63.1463" gradientTransform="matrix(1,0,0,1,0,0)" xlink:href="#j"/><linearGradient id="o" x1="43.78364" y1="125.67802" x2="43.78364" y2="99.09176" gradientUnits="userSpaceOnUse"><stop offset="0" stop-color="#1a1a1a"/><stop offset="1" stop-color="#4d4d4d"/></linearGradient><linearGradient id="p" x1="58.09932" y1="122.61038" x2="58.09932" y2="102.15942" gradientUnits="userSpaceOnUse"><stop offset="0" stop-color="#666"/><stop offset="1" stop-color="#999"/></linearGradient><linearGradient id="q" x1="29.46797" x2="29.46797" xlink:href="#p"/><linearGradient id="r" x1="140.42346" y1="186.36822" x2="140.42346" y2="174.82821" gradientTransform="translate(-69.90612 -107.73467) rotate(2.10033)" xlink:href="#j"/><linearGradient id="s" x1="43.63018" y1="115.88332" x2="43.63018" y2="65.67143" gradientUnits="userSpaceOnUse"><stop offset="0" stop-color="#00025e"/><stop offset=".11978" stop-color="#00077b"/><stop offset=".27814" stop-color="#000c9b"/><stop offset=".4424" stop-color="#0011b4"/><stop offset=".61274" stop-color="#0014c6"/><stop offset=".79305" stop-color="#0016d1"/><stop offset="1" stop-color="#0017d5"/></linearGradient><linearGradient id="t" x1="57.98443" y1="80.1756" x2="57.98443" y2="63.08269" gradientTransform="matrix(1,0,0,1,0,0)" xlink:href="#j"/><linearGradient id="u" x1="47.55592" y1="98.32805" x2="51.80918" y2="74.2066" gradientUnits="userSpaceOnUse"><stop offset=".27933" stop-color="#00c2eb"/><stop offset=".35356" stop-color="#00b2e9"/><stop offset=".49714" stop-color="#008ae3"/><stop offset=".69373" stop-color="#004adb"/><stop offset=".83799" stop-color="#0017d5"/></linearGradient><linearGradient id="v" x1="33.80276" y1="100.43057" x2="38.29439" y2="74.95729" xlink:href="#u"/></defs><g id="c"><path class="y" d="M82.6662,118.93945c.5-1.87012,1.14844-3.63086,1.82227-5.45996,1.96875-5.34473,4.2002-11.40234,2.44238-19.90137-.07532-.36462-.1571-.72852-.24548-1.09167-.17334-.7124-.33057-1.25122-.40588-1.50598-1.63354-5.52563-2.45032-8.28845-2.93945-9.50488-1.58191-3.9339-3.71057-6.50775-7.83594-11.49609-1.49109-1.80304-2.79651-3.23071-3.69812-4.18585,4.03955-5.22839,10.4082-15.51251,11.6698-29.62567,1.13379-12.68066-2.25195-22.96484-5.29102-29.3584-1.58887-3.34668-4.5791-5.72754-8.20117-6.52734-.85352-.1875-1.7207-.28223-2.58398-.28223-2.77051,0-5.47363.97656-7.61133,2.75098-4.84094,4.01141-11.37463,10.78003-16.00433,20.73944-4.6297-9.95941-11.16339-16.72803-16.00433-20.73944-2.1377-1.77441-4.84082-2.75098-7.61133-2.75098-.86328,0-1.73047.09473-2.58398.28223-3.62207.7998-6.6123,3.18066-8.20117,6.52734-3.03906,6.39355-6.4248,16.67773-5.29102,29.3584,1.26166,14.11316,7.63025,24.39728,11.66974,29.62567-.90149.95514-2.20697,2.38281-3.69806,4.18585-4.12543,4.98834-6.25403,7.56219-7.83594,11.49609-.4892,1.21643-1.30591,3.97925-2.93945,9.50488-.07532.25476-.23248.79358-.40588,1.50598-.08838.36316-.17017.72705-.24548,1.09167-1.75781,8.49902.47363,14.55664,2.44238,19.90137.67383,1.8291,1.32227,3.58984,1.82227,5.45996-.31348.40625-.65039.79102-1.00977,1.14844-3.00262,2.98627-1.97827,7.53558-1.85742,8.44727.3985,3.00562,1.78143,5.16467,2.63965,6.28809-.64331,2.10309-1.39789,5.42163-1.22815,9.51062.04999,1.2041.21765,3.37933.85901,5.83411,3.1626,12.10492,14.36243,17.68506,16.547,18.46838,1.44849.51941,2.83862.5199,2.83875.5199,1.82324,0,3.64355-.62109,5.125-1.85645,2.88281-2.4043,3.70605-6.48926,1.98047-9.82227-2.46387-4.75781-3.62109-9.48828-3.43848-14.05957.04297-1.07324.1543-2.06641.30762-2.98145.76196-.10468,2.59137-.46283,4.25586-1.93848,2.33331-2.0686,2.63049-4.81549,2.68262-5.44629,3.47266-.86328,6.6123-2.58203,9.17969-4.91797.00012.00012.00031.00024.00043.00037.00012-.00012.00031-.00024.00043-.00037,2.56738,2.33594,5.70703,4.05469,9.17969,4.91797.05212.6308.34924,3.37769,2.68262,5.44629,1.66443,1.47565,3.4939,1.8338,4.25586,1.93848.15332.91504.26465,1.9082.30762,2.98145.18262,4.57129-.97461,9.30176-3.43848,14.05957-1.72559,3.33301-.90234,7.41797,1.98047,9.82227,1.48145,1.23535,3.30176,1.85645,5.125,1.85645.00012,0,1.39026-.00049,2.83875-.5199,2.18457-.78333,13.3844-6.36346,16.547-18.46838.64136-2.45477.80896-4.63.85901-5.83411.16968-4.08899-.58484-7.40753-1.22815-9.51062.85828-1.12341,2.24109-3.28247,2.63965-6.28809.12085-.91168,1.14514-5.461-1.85742-8.44727-.35938-.35742-.69629-.74219-1.00977-1.14844Z"/><path class="am" d="M22.67067,8.90707c-.9419-.78084-2.1668-1.07638-3.36121-.81311-1.19262.26386-2.17696,1.04769-2.7011,2.15066-2.61205,5.49454-5.52144,14.32848-4.54875,25.21058,1.13076,12.64668,7.05322,21.73462,10.48257,26.02578.7644.95714,1.9107,1.48009,3.08211,1.48009.52414,0,1.05367-.10489,1.5557-.32243.0003,0,.0006-.0003.0009-.0003,1.58916-.68939,3.24377-1.26733,4.91721-1.71796,1.67463-.45123,3.39737-.78233,5.12101-.98494,1.74455-.20559,3.15592-1.55928,3.43233-3.29278,1.03992-6.52699,1.33397-16.6163-3.16996-27.61764-4.01684-9.812-10.2713-16.35602-14.81079-20.11796ZM36.6623,46.55287c-2.26074.38612-4.51106.86686-6.73161,1.43l5.79019-9.06575c.55847,2.68848.84557,5.25193.94142,7.63575ZM24.74543,36.74285c.09645.39397.20171.78864.29961,1.1828l-7.96674-5.65075c2.02463-.68592,4.09954-1.29179,6.19242-1.81116.4748,2.10113.96465,4.19621,1.47471,6.27911ZM24.45953,30.17253c2.39861-.55526,4.85404-.99681,7.31279-1.32765l-5.49529,8.96038c-.11232-.45104-.23249-.90268-.34287-1.35346-.51002-2.08298-.99995-4.17806-1.47464-6.27926ZM25.60352,40.1304c.64472,2.52655,1.30868,5.05336,2.01003,7.57401l-9.22776-5.27333c2.35738-.8759,4.77698-1.6462,7.21773-2.30067ZM26.78676,39.81722c2.59722-.65484,5.2529-1.18014,7.91456-1.57747l-5.88679,9.21703c-.708-2.54231-1.37756-5.09116-2.02777-7.63956ZM33.23393,30.76421c.85816,2.09624,1.51513,4.15269,2.02444,6.1545-2.66098.37286-5.31872.88132-7.92726,1.50945l5.4065-8.81563c.16787.38022.33599.76007.49632,1.15168ZM31.79832,27.60598c-2.39828.31702-4.79293.74225-7.13966,1.27043l2.82045-8.27214c1.52473,2.04562,3.00404,4.37125,4.31922,7.00171ZM26.47224,19.76527l-2.61074,7.65704c-.50394-2.31401-.98467-4.63257-1.44352-6.95663,1.33479-.26812,2.69027-.50024,4.05427-.70041ZM25.90922,18.60944c-.9948.15087-1.98238.32262-2.96246.50924l1.41767-2.27875c.51268.55776,1.02879,1.14948,1.54479,1.76951ZM23.49547,15.91947l-1.49645,2.40537c-.29816-1.55936-.5823-3.11703-.85928-4.67631.75693.68006,1.54845,1.43814,2.35573,2.27094ZM19.95762,13.99199c.25501,1.43262.51432,2.8637.78719,4.29639l-1.79849-1.66152c.32681-.93447.66657-1.81822,1.01131-2.63487ZM18.52235,17.90155l1.88456,1.74097c-.85928.19345-1.71288.40387-2.56147.62548.21082-.82069.43745-1.60975.67692-2.36645ZM21.22058,20.71935c.43838,2.2198.89715,4.43423,1.37655,6.64506l-4.75543-5.82915c1.11627-.29666,2.24404-.56904,3.37888-.81591ZM17.27717,22.77984l5.36623,6.57787c-2.08944.52814-4.1602,1.14059-6.17945,1.83151-.00179-3.02791.31089-5.84383.81322-8.40938ZM16.63167,35.04641c-.05035-.56307-.08793-1.11941-.11602-1.67018l8.10805,5.75097c-2.34632.65055-4.67067,1.40483-6.93594,2.25559-.48339-1.9856-.8558-4.09599-1.05609-6.33638ZM18.36009,43.82603l8.66099,4.9494c-1.98896.57973-3.96637,1.2262-5.91144,1.94791-1.01351-2.03035-1.96752-4.34234-2.74955-6.89731ZM25.82211,58.22795c-1.00705-1.29273-2.21102-3.00512-3.415-5.0937l7.32867,3.68985c-1.32664.40084-2.63753.8697-3.91367,1.40385ZM22.17021,51.64474c1.98261-.7179,3.99383-1.36523,6.01734-1.9327.55421,1.94865,1.1243,3.88913,1.70933,5.82291l-7.72667-3.89021ZM29.36867,49.39072c2.12433-.56284,4.28126-1.0459,6.45049-1.44423l-4.76331,7.19334c-.57733-1.90936-1.13995-3.82525-1.68718-5.7491ZM36.19292,55.4375c-1.4833.19293-2.96246.47487-4.41641.83156l4.92535-7.43808c-.01905,2.46305-.22461,4.69215-.50894,6.60652Z"/><path class="am" d="M70.9594,10.24432c-.52474-1.10327-1.50938-1.8868-2.7017-2.15036-1.19352-.26386-2.41901.03227-3.36091.81341-4.53949,3.76164-10.79395,10.30566-14.81079,20.11766-4.50423,11.00193-4.20988,21.09124-3.16966,27.61823.27642,1.7329,1.68778,3.08689,3.43323,3.29248,1.72304.20231,3.44548.53341,5.11981.98464,1.67403.45093,3.32864,1.02886,4.9175,1.71796.0003,0,.0006.0003.0009.0003.50203.21755,1.03125.32214,1.5554.32214,1.17081,0,2.31741-.52265,3.08211-1.47949,3.42964-4.29176,9.35181-13.3803,10.48227-26.02608.97298-10.8812-1.9361-19.71574-4.54815-25.21088ZM69.72196,20.26804c-.84856-.22162-1.70208-.43207-2.56121-.62548l1.88437-1.74089c.23944.75667.46606,1.54572.67684,2.36638ZM69.72584,21.53518l-4.75517,5.82882c.47932-2.21058.93802-4.42489,1.3764-6.64473,1.13465.24676,2.26239.51918,3.37877.81591ZM67.60996,13.99154c.3447.81684.68446,1.7007,1.01127,2.63536l-1.79849,1.66156c.27287-1.4328.53217-2.86404.78722-4.29692ZM66.42768,13.64857c-.27698,1.55924-.56105,3.11688-.85917,4.67602l-1.49638-2.40508c.80725-.83279,1.59865-1.59085,2.35554-2.27094ZM63.20315,16.83997l1.41782,2.27875c-.9803-.18662-1.96789-.35837-2.96265-.5092.51604-.62007,1.03211-1.21175,1.54483-1.76954ZM65.14952,20.4656c-.45889,2.32432-.93951,4.64303-1.44345,6.957l-2.61089-7.65742c1.36389.20021,2.71937.43233,4.05434.70041ZM61.96413,40.1304c2.44045.65447,4.85987,1.42473,7.21762,2.30064l-9.22779,5.2733c.70127-2.52046,1.36538-5.04727,2.01018-7.57393ZM58.75297,47.45682l-5.88679-9.21703c2.66117.39725,5.31689.92256,7.91474,1.5774-.65032,2.54855-1.32,5.09747-2.02796,7.63964ZM55.79514,28.84488c2.45909.33084,4.91463.77239,7.31306,1.32769-.47469,2.10135-.96465,4.19643-1.4746,6.27922-.11042.45089-.23062.90261-.34298,1.35376l-5.49547-8.96068ZM62.82233,36.74285c.51002-2.08275.99984-4.17783,1.47468-6.27908,2.09306.51932,4.16793,1.12523,6.19215,1.81108l-7.96633,5.65027c.0979-.39397.20309-.78849.2995-1.18227ZM60.08836,20.60437l2.82045,8.27203c-2.34654-.52814-4.7412-.95348-7.13962-1.27047,1.31521-2.63039,2.79441-4.95594,4.31918-7.00157ZM54.33354,30.76421c.16032-.39161.32845-.77146.49632-1.15168l5.4065,8.8156c-2.60891-.62814-5.26683-1.13655-7.92733-1.50941.50931-2.00177,1.16632-4.05823,2.02452-6.1545ZM51.84654,38.91704l5.79019,9.06583c-2.22047-.56318-4.4708-1.04395-6.73157-1.43008.09581-2.38378.38287-4.9472.94138-7.63575ZM51.37485,55.4375c-.28445-1.9144-.49008-4.14347-.5092-6.60652l4.92557,7.43808c-1.45395-.35669-2.93307-.63863-4.41637-.83156ZM51.74842,47.9466c2.16919.39834,4.32609.88132,6.45042,1.44416-.54723,1.92385-1.10985,3.83963-1.68714,5.74881l-4.76327-7.19296ZM61.74565,58.22795c-1.27596-.53397-2.58699-1.00275-3.91382-1.40378l7.32859-3.68992c-1.2039,2.08858-2.40784,3.80097-3.41478,5.0937ZM57.67058,55.5351c.58503-1.93375,1.15519-3.87426,1.70941-5.82303,2.02381.56759,4.0351,1.21488,6.01734,1.93263l-7.72674,3.8904ZM66.45794,50.72323c-1.94481-.72167-3.9223-1.36799-5.91155-1.94779l8.66107-4.94948c-.78207,2.55486-1.73604,4.86693-2.74951,6.89727ZM70.93579,35.04641c-.20021,2.24031-.57263,4.35067-1.05602,6.33626-2.26537-.85095-4.58954-1.60515-6.93556-2.25551l8.10764-5.75093c-.02809.55078-.0657,1.10712-.11606,1.67018ZM64.92409,29.35766l5.36612-6.57772c.50233,2.56555.81509,5.38151.8133,8.40927-2.01907-.69096-4.08972-1.30337-6.17942-1.83155Z"/><path class="z" d="M14.87522,116.26041c-.37577,1.48898-1.06433,3.55053-2.3793,5.72324-.99623,1.64607-2.06739,2.8857-2.95961,3.77356.75257.05515,2.11741.03127,3.53993-.75471,3.12833-1.72848,3.71015-5.58145,3.77205-6.0377"/><path class="ah" d="M14.67227,123.34182c-.21549,1.17537-.61034,2.80272-1.3644,4.51781-.57129,1.29938-1.18554,2.27792-1.69718,2.97878.43156.04354,1.21422.02468,2.02997-.59576,1.79394-1.36443,2.12758-4.40589,2.16308-4.76604"/><path class="aj" d="M20.87456,72.56383c-.95235,1.01571-2.01947,2.07416-3.20361,3.13498-2.00592,1.79701-3.90378,3.20316-5.58008,4.30069.38399.32819,1.12688.84806,2.21925.94038,0,0,.91378.07723,1.97718-.29331,1.78153-.62077,4.25221-3.19714,6.39439-7.05335"/><path class="ae" d="M15.55894,80.84808c-.897,1.23451-2.20117,2.90785-3.79359,4.54576-1.20644,1.2409-2.23367,2.10697-3.01564,2.70061.25024.20918.76716.47913,1.69339.08853,2.0369-.859,4.21359-4.13678,4.46876-4.52641"/><path class="ab" d="M19.81179,77.73944c-7.93793,6.81498-10.44838,13.14117-11.34104,17.45923-2.62028,12.67512,6.7053,17.69164,5.22285,34.47079-.67176,7.6032-3.48672,11.3404-1.64147,18.5038,1.40339,5.44807,4.49668,9.42885,6.9638,11.98768-.51886-.92901-1.06293-2.09342-1.49224-3.4819-.74738-2.41716-.85161-4.55809-.79586-6.06845.37326,1.43574,1.08124,3.48961,2.48707,5.67052,1.52277,2.36233,3.25764,3.93251,4.47673,4.87466-2.18623-4.22177-4.62913-10.51116-4.3275-18.05613.23002-5.75376,1.96016-9.83689,2.68604-11.78871,2.61665-7.03586,4.08769-18.38573-1.34302-37.15682"/><path class="ai" d="M42.06718,67.54246c-1.50123-.99804-3.6649-2.10599-6.3669-2.38759-9.57068-.99744-18.02355,9.19327-21.58777,16.51414-4.12686,8.47654-3.36844,16.53301-2.93474,21.14009.01101.11695.02532.26512.04407.44266.29381,2.78166,1.04377,9.39362,4.88033,16.5689,3.31613,6.20195,7.58895,10.30617,10.5203,12.68406-2.18943-3.50091-4.82965-8.57014-6.49125-15.07164-1.55709-6.09263-1.75167-11.4741-1.64147-11.49026.07865-.01154.42736,4.7027,2.08914,10.29647,1.57118,5.28884,3.7253,9.37497,5.37207,12.08716-1.08923-4.84844-1.94696-11.16875-1.49224-18.5038.9674-15.60483,7.33703-27.12532,11.19181-32.97854"/><path class="ad" d="M67.50831,80.64448c.69973.23246,1.75997.67809,2.87879,1.58422,1.03103.83503,1.65874,1.6942,1.89231,2.00189.95012,1.25164,2.72657,3.05845,6.36711,5.37217-1.08377-1.35886-2.44884-3.07439-4.02646-5.06673-1.94904-2.46141-2.4889-3.15599-3.44211-3.77161-.9931-.64138-2.85981-1.47149-5.84498-.78532"/><path class="w" d="M71.99492,117.5823c.37577,1.48898,1.06433,3.55053,2.3793,5.72324.99623,1.64607,2.06739,2.8857,2.95961,3.77356-.75257.05515-2.11741.03127-3.53993-.75471-3.12833-1.72848-3.71015-5.58145-3.77205-6.0377"/><path class="aa" d="M72.19787,122.90463c.21549,1.17537.61034,2.80272,1.3644,4.51781.57129,1.29938,1.18554,2.27792,1.69718,2.97878-.43156.04354-1.21422.02468-2.02997-.59576-1.79394-1.36443-2.12758-4.40589-2.16308-4.76604"/><path class="ag" d="M66.83839,77.73944c7.93793,6.81498,10.44838,13.14117,11.34104,17.45923,2.62028,12.67512-6.7053,17.69164-5.22285,34.47079.67176,7.6032,3.48672,11.3404,1.64147,18.5038-1.40339,5.44807-4.49668,9.42885-6.9638,11.98768.51886-.92901,1.06293-2.09342,1.49224-3.4819.74738-2.41716.85161-4.55809.79586-6.06845-.37326,1.43574-1.08124,3.48961-2.48707,5.67052-1.52277,2.36233-3.25764,3.93251-4.47673,4.87466,2.18623-4.22177,4.62913-10.51116,4.3275-18.05613-.23002-5.75376-1.96016-9.83689-2.68604-11.78871-2.61665-7.03586-4.08769-18.38573,1.34302-37.15682"/><path class="ap" d="M34.00908,70.27823c.72254-1.75006,2.23571-4.5909,5.22284-6.11819,5.0113-2.56223,10.76769.31253,14.62397,2.23836,2.12191,1.05969,14.29535,7.13913,19.24992,19.99604,5.43655,14.10765.37122,31.67816-12.83328,44.02113,1.33263-3.10356,2.61851-6.7642,3.58139-10.94311.41552-1.80334.73164-3.5329.96995-5.17311-.3044,1.32407-.76322,2.84729-1.46737,4.47673-1.26302,2.9227-2.85913,5.1315-4.17828,6.66535,1.31562-5.48,5.53863-25.93254-6.3669-43.07605-2.67906-3.85775-5.7146-6.88524-8.655-9.2519"/><path class="ac" d="M58.09932,99.09176c-5.37267,0-10.00772,3.2058-12.10172,7.80332-.64693-.13481-1.38708-.22897-2.21413-.22897-.82685,0-1.56693.09414-2.21378.22895-2.094-4.59752-6.72905-7.8033-12.10172-7.8033-7.32984,0-13.29313,5.96328-13.29313,13.29313s5.96328,13.29313,13.29313,13.29313,13.29313-5.96328,13.29313-13.29313c0-.87159-.08683-1.72298-.24772-2.54818.38253-.06256.80648-.10295,1.2701-.10295.46377,0,.88781.04039,1.27045.10295-.1609.8252-.24772,1.67659-.24772,2.54818,0,7.32984,5.96328,13.29313,13.29313,13.29313s13.29313-5.96328,13.29313-13.29313-5.96328-13.29313-13.29313-13.29313Z"/><path class="al" d="M58.09932,102.15942c5.64738,0,10.22548,4.5781,10.22548,10.22548s-4.5781,10.22548-10.22548,10.22548-10.22548-4.5781-10.22548-10.22548,4.5781-10.22548,10.22548-10.22548"/><ellipse class="ao" cx="51.34137" cy="108.25684" rx="1.98495" ry="1.09473" transform="translate(-68.01452 118.7283) rotate(-69.64101)"/><circle class="ao" cx="53.1428" cy="105.59368" r=".70593"/><path class="af" d="M29.46797,102.15942c5.64738,0,10.22548,4.5781,10.22548,10.22548s-4.5781,10.22548-10.22548,10.22548-10.22548-4.5781-10.22548-10.22548,4.5781-10.22548,10.22548-10.22548"/><ellipse class="ao" cx="22.71002" cy="108.25684" rx="1.98495" ry="1.09473" transform="translate(-86.68499 91.88551) rotate(-69.64101)"/><circle class="ao" cx="24.51145" cy="105.59368" r=".70593"/><path class="an" d="M55.71624,72.94848c1.25305.29792,3.15362.86323,5.16825,1.99119,1.85654,1.03945,2.99412,2.09997,3.41715,2.47995,1.72084,1.54571,4.92728,3.78542,11.46951,6.68181-1.96148-1.6792-4.43217-3.79909-7.28775-6.26088-3.52788-3.04138-4.50532-3.89941-6.2185-4.66974-1.78486-.80256-5.13204-1.85336-10.44298-1.07867"/><path class="ar" d="M35.50131,65.67143c-2.92623,2.57243-7.26133,7.33079-8.20733,14.02567-1.40254,9.92587,5.55085,17.69467,9.79906,22.44107,5.122,5.72265,10.72813,9.04727,14.32553,10.84652-.80553-.85374-1.83175-2.12415-2.68604-3.83368-.81413-1.62917-1.1995-3.11168-1.39276-4.2077.76158,1.46041,1.73567,3.08175,2.98449,4.76873,1.94358,2.6255,3.9939,4.65527,5.77,6.17129,1.72196-3.58724,3.35293-8.22935,3.87983-13.74515,1.75457-18.36747-10.10759-32.0386-13.43018-35.62519"/><path class="x" d="M47.52851,64.75577c1.59824.37296,4.02765,1.10655,6.62736,2.66679,2.39571,1.43781,3.88331,2.94583,4.43584,3.4853,2.2476,2.19454,6.40587,5.33567,14.81255,9.26775-2.55808-2.37906-5.78046-5.38279-9.50538-8.87169-4.60189-4.31031-5.8776-5.5273-8.07957-6.57455-2.2941-1.09106-6.57519-2.46473-13.25471-1.02975"/><path class="aq" d="M39.67959,73.71039c1.44395,3.1638,3.45153,6.77119,6.26741,10.44569,7.25053,9.46138,16.05857,14.40714,21.48828,16.86233-3.07542.12667-12.42279.11264-21.33906-6.26742-11.92393-8.5322-13.75437-21.77889-14.02707-24.02509"/><path class="ak" d="M32.06916,73.85961c.11419,3.1755.62228,7.39681,2.23836,12.08716,2.80646,8.14517,7.52524,13.55732,10.4457,16.41466-2.62563-1.19967-7.30095-3.76789-11.34104-8.80423-5.43126-6.77057-6.45967-13.94423-6.71509-16.86233"/></g></svg>